<mxfile host="app.diagrams.net" modified="2023-10-08T16:29:41.894Z" agent="Mozilla/5.0 (Windows NT 10.0; Win64; x64) AppleWebKit/537.36 (KHTML, like Gecko) Chrome/117.0.0.0 Safari/537.36 Edg/117.0.2045.47" etag="Vj7K-_ntQMWjiGSKrCKo" version="22.0.4" type="device">
  <diagram name="Page-1" id="mKRtxmhU7NOtCti8sPBy">
    <mxGraphModel dx="1806" dy="1006" grid="1" gridSize="10" guides="1" tooltips="1" connect="1" arrows="1" fold="1" page="1" pageScale="1" pageWidth="850" pageHeight="1100" math="0" shadow="0">
      <root>
        <mxCell id="0" />
        <mxCell id="1" parent="0" />
        <mxCell id="nSdMBXf0cxcsSDTW76qy-12" value="ClientUser" style="swimlane;fontStyle=0;childLayout=stackLayout;horizontal=1;startSize=26;fillColor=none;horizontalStack=0;resizeParent=1;resizeParentMax=0;resizeLast=0;collapsible=1;marginBottom=0;whiteSpace=wrap;html=1;" vertex="1" parent="1">
          <mxGeometry x="460" y="70" width="140" height="52" as="geometry" />
        </mxCell>
        <mxCell id="nSdMBXf0cxcsSDTW76qy-27" value="layouts" style="text;strokeColor=none;fillColor=none;align=left;verticalAlign=top;spacingLeft=4;spacingRight=4;overflow=hidden;rotatable=0;points=[[0,0.5],[1,0.5]];portConstraint=eastwest;whiteSpace=wrap;html=1;" vertex="1" parent="nSdMBXf0cxcsSDTW76qy-12">
          <mxGeometry y="26" width="140" height="26" as="geometry" />
        </mxCell>
        <mxCell id="nSdMBXf0cxcsSDTW76qy-17" value="l2: Layout" style="swimlane;fontStyle=0;childLayout=stackLayout;horizontal=1;startSize=26;fillColor=none;horizontalStack=0;resizeParent=1;resizeParentMax=0;resizeLast=0;collapsible=1;marginBottom=0;whiteSpace=wrap;html=1;" vertex="1" parent="1">
          <mxGeometry x="570" y="162" width="190" height="78" as="geometry" />
        </mxCell>
        <mxCell id="nSdMBXf0cxcsSDTW76qy-25" value="walls" style="text;strokeColor=none;fillColor=none;align=left;verticalAlign=top;spacingLeft=4;spacingRight=4;overflow=hidden;rotatable=0;points=[[0,0.5],[1,0.5]];portConstraint=eastwest;whiteSpace=wrap;html=1;" vertex="1" parent="nSdMBXf0cxcsSDTW76qy-17">
          <mxGeometry y="26" width="190" height="26" as="geometry" />
        </mxCell>
        <mxCell id="nSdMBXf0cxcsSDTW76qy-45" value="positionedItems" style="text;strokeColor=none;fillColor=none;align=left;verticalAlign=top;spacingLeft=4;spacingRight=4;overflow=hidden;rotatable=0;points=[[0,0.5],[1,0.5]];portConstraint=eastwest;whiteSpace=wrap;html=1;" vertex="1" parent="nSdMBXf0cxcsSDTW76qy-17">
          <mxGeometry y="52" width="190" height="26" as="geometry" />
        </mxCell>
        <mxCell id="nSdMBXf0cxcsSDTW76qy-23" value="l1: Layout" style="swimlane;fontStyle=0;childLayout=stackLayout;horizontal=1;startSize=26;fillColor=none;horizontalStack=0;resizeParent=1;resizeParentMax=0;resizeLast=0;collapsible=1;marginBottom=0;whiteSpace=wrap;html=1;" vertex="1" parent="1">
          <mxGeometry x="318" y="162" width="170" height="52" as="geometry" />
        </mxCell>
        <mxCell id="nSdMBXf0cxcsSDTW76qy-24" value="walls" style="text;strokeColor=none;fillColor=none;align=left;verticalAlign=top;spacingLeft=4;spacingRight=4;overflow=hidden;rotatable=0;points=[[0,0.5],[1,0.5]];portConstraint=eastwest;whiteSpace=wrap;html=1;" vertex="1" parent="nSdMBXf0cxcsSDTW76qy-23">
          <mxGeometry y="26" width="170" height="26" as="geometry" />
        </mxCell>
        <mxCell id="nSdMBXf0cxcsSDTW76qy-28" value="" style="endArrow=none;html=1;rounded=0;entryX=0.5;entryY=0;entryDx=0;entryDy=0;exitX=0.509;exitY=1.034;exitDx=0;exitDy=0;exitPerimeter=0;edgeStyle=orthogonalEdgeStyle;" edge="1" parent="1" source="nSdMBXf0cxcsSDTW76qy-27" target="nSdMBXf0cxcsSDTW76qy-23">
          <mxGeometry width="50" height="50" relative="1" as="geometry">
            <mxPoint x="520" y="140" as="sourcePoint" />
            <mxPoint x="580" y="130" as="targetPoint" />
          </mxGeometry>
        </mxCell>
        <mxCell id="nSdMBXf0cxcsSDTW76qy-29" value="" style="endArrow=none;html=1;rounded=0;entryX=0.5;entryY=0;entryDx=0;entryDy=0;exitX=0.518;exitY=1.034;exitDx=0;exitDy=0;exitPerimeter=0;edgeStyle=orthogonalEdgeStyle;" edge="1" parent="1" source="nSdMBXf0cxcsSDTW76qy-27" target="nSdMBXf0cxcsSDTW76qy-17">
          <mxGeometry width="50" height="50" relative="1" as="geometry">
            <mxPoint x="541" y="133" as="sourcePoint" />
            <mxPoint x="400" y="190" as="targetPoint" />
          </mxGeometry>
        </mxCell>
        <mxCell id="nSdMBXf0cxcsSDTW76qy-30" value="p1: Position" style="swimlane;fontStyle=0;childLayout=stackLayout;horizontal=1;startSize=26;fillColor=none;horizontalStack=0;resizeParent=1;resizeParentMax=0;resizeLast=0;collapsible=1;marginBottom=0;whiteSpace=wrap;html=1;" vertex="1" parent="1">
          <mxGeometry x="150" y="210" width="140" height="104" as="geometry" />
        </mxCell>
        <mxCell id="nSdMBXf0cxcsSDTW76qy-31" value="x = 40" style="text;strokeColor=none;fillColor=none;align=left;verticalAlign=top;spacingLeft=4;spacingRight=4;overflow=hidden;rotatable=0;points=[[0,0.5],[1,0.5]];portConstraint=eastwest;whiteSpace=wrap;html=1;" vertex="1" parent="nSdMBXf0cxcsSDTW76qy-30">
          <mxGeometry y="26" width="140" height="26" as="geometry" />
        </mxCell>
        <mxCell id="nSdMBXf0cxcsSDTW76qy-32" value="y = 40" style="text;strokeColor=none;fillColor=none;align=left;verticalAlign=top;spacingLeft=4;spacingRight=4;overflow=hidden;rotatable=0;points=[[0,0.5],[1,0.5]];portConstraint=eastwest;whiteSpace=wrap;html=1;" vertex="1" parent="nSdMBXf0cxcsSDTW76qy-30">
          <mxGeometry y="52" width="140" height="26" as="geometry" />
        </mxCell>
        <mxCell id="nSdMBXf0cxcsSDTW76qy-33" value="angle = 90" style="text;strokeColor=none;fillColor=none;align=left;verticalAlign=top;spacingLeft=4;spacingRight=4;overflow=hidden;rotatable=0;points=[[0,0.5],[1,0.5]];portConstraint=eastwest;whiteSpace=wrap;html=1;" vertex="1" parent="nSdMBXf0cxcsSDTW76qy-30">
          <mxGeometry y="78" width="140" height="26" as="geometry" />
        </mxCell>
        <mxCell id="nSdMBXf0cxcsSDTW76qy-34" value="d1: Dimensions" style="swimlane;fontStyle=0;childLayout=stackLayout;horizontal=1;startSize=26;fillColor=none;horizontalStack=0;resizeParent=1;resizeParentMax=0;resizeLast=0;collapsible=1;marginBottom=0;whiteSpace=wrap;html=1;" vertex="1" parent="1">
          <mxGeometry x="150" y="360" width="140" height="104" as="geometry" />
        </mxCell>
        <mxCell id="nSdMBXf0cxcsSDTW76qy-35" value="length = 200" style="text;strokeColor=none;fillColor=none;align=left;verticalAlign=top;spacingLeft=4;spacingRight=4;overflow=hidden;rotatable=0;points=[[0,0.5],[1,0.5]];portConstraint=eastwest;whiteSpace=wrap;html=1;" vertex="1" parent="nSdMBXf0cxcsSDTW76qy-34">
          <mxGeometry y="26" width="140" height="26" as="geometry" />
        </mxCell>
        <mxCell id="nSdMBXf0cxcsSDTW76qy-36" value="width = 10" style="text;strokeColor=none;fillColor=none;align=left;verticalAlign=top;spacingLeft=4;spacingRight=4;overflow=hidden;rotatable=0;points=[[0,0.5],[1,0.5]];portConstraint=eastwest;whiteSpace=wrap;html=1;" vertex="1" parent="nSdMBXf0cxcsSDTW76qy-34">
          <mxGeometry y="52" width="140" height="26" as="geometry" />
        </mxCell>
        <mxCell id="nSdMBXf0cxcsSDTW76qy-37" value="height = 250" style="text;strokeColor=none;fillColor=none;align=left;verticalAlign=top;spacingLeft=4;spacingRight=4;overflow=hidden;rotatable=0;points=[[0,0.5],[1,0.5]];portConstraint=eastwest;whiteSpace=wrap;html=1;" vertex="1" parent="nSdMBXf0cxcsSDTW76qy-34">
          <mxGeometry y="78" width="140" height="26" as="geometry" />
        </mxCell>
        <mxCell id="nSdMBXf0cxcsSDTW76qy-38" value="wall1: Wall" style="swimlane;fontStyle=0;childLayout=stackLayout;horizontal=1;startSize=26;fillColor=none;horizontalStack=0;resizeParent=1;resizeParentMax=0;resizeLast=0;collapsible=1;marginBottom=0;whiteSpace=wrap;html=1;" vertex="1" parent="1">
          <mxGeometry x="322.5" y="270" width="157" height="104" as="geometry" />
        </mxCell>
        <mxCell id="nSdMBXf0cxcsSDTW76qy-39" value="position: Position" style="text;strokeColor=none;fillColor=none;align=left;verticalAlign=top;spacingLeft=4;spacingRight=4;overflow=hidden;rotatable=0;points=[[0,0.5],[1,0.5]];portConstraint=eastwest;whiteSpace=wrap;html=1;" vertex="1" parent="nSdMBXf0cxcsSDTW76qy-38">
          <mxGeometry y="26" width="157" height="26" as="geometry" />
        </mxCell>
        <mxCell id="nSdMBXf0cxcsSDTW76qy-40" value="dimensions: Dimensions" style="text;strokeColor=none;fillColor=none;align=left;verticalAlign=top;spacingLeft=4;spacingRight=4;overflow=hidden;rotatable=0;points=[[0,0.5],[1,0.5]];portConstraint=eastwest;whiteSpace=wrap;html=1;" vertex="1" parent="nSdMBXf0cxcsSDTW76qy-38">
          <mxGeometry y="52" width="157" height="26" as="geometry" />
        </mxCell>
        <mxCell id="nSdMBXf0cxcsSDTW76qy-41" value="angle&amp;nbsp; = 90" style="text;strokeColor=none;fillColor=none;align=left;verticalAlign=top;spacingLeft=4;spacingRight=4;overflow=hidden;rotatable=0;points=[[0,0.5],[1,0.5]];portConstraint=eastwest;whiteSpace=wrap;html=1;" vertex="1" parent="nSdMBXf0cxcsSDTW76qy-38">
          <mxGeometry y="78" width="157" height="26" as="geometry" />
        </mxCell>
        <mxCell id="nSdMBXf0cxcsSDTW76qy-42" value="" style="endArrow=none;html=1;rounded=0;entryX=0.5;entryY=0;entryDx=0;entryDy=0;exitX=0.49;exitY=1.048;exitDx=0;exitDy=0;exitPerimeter=0;" edge="1" parent="1" source="nSdMBXf0cxcsSDTW76qy-24" target="nSdMBXf0cxcsSDTW76qy-38">
          <mxGeometry width="50" height="50" relative="1" as="geometry">
            <mxPoint x="541" y="133" as="sourcePoint" />
            <mxPoint x="415" y="190" as="targetPoint" />
          </mxGeometry>
        </mxCell>
        <mxCell id="nSdMBXf0cxcsSDTW76qy-43" value="" style="endArrow=none;html=1;rounded=0;entryX=0;entryY=0.5;entryDx=0;entryDy=0;exitX=1.005;exitY=-0.012;exitDx=0;exitDy=0;exitPerimeter=0;edgeStyle=elbowEdgeStyle;" edge="1" parent="1" source="nSdMBXf0cxcsSDTW76qy-31" target="nSdMBXf0cxcsSDTW76qy-39">
          <mxGeometry width="50" height="50" relative="1" as="geometry">
            <mxPoint x="413" y="269" as="sourcePoint" />
            <mxPoint x="413" y="320" as="targetPoint" />
          </mxGeometry>
        </mxCell>
        <mxCell id="nSdMBXf0cxcsSDTW76qy-44" value="" style="endArrow=none;html=1;rounded=0;entryX=0;entryY=0.5;entryDx=0;entryDy=0;exitX=1.001;exitY=0.129;exitDx=0;exitDy=0;exitPerimeter=0;edgeStyle=elbowEdgeStyle;" edge="1" parent="1" source="nSdMBXf0cxcsSDTW76qy-34" target="nSdMBXf0cxcsSDTW76qy-40">
          <mxGeometry width="50" height="50" relative="1" as="geometry">
            <mxPoint x="301" y="316" as="sourcePoint" />
            <mxPoint x="343" y="359" as="targetPoint" />
          </mxGeometry>
        </mxCell>
        <mxCell id="nSdMBXf0cxcsSDTW76qy-46" value="p2: Position" style="swimlane;fontStyle=0;childLayout=stackLayout;horizontal=1;startSize=26;fillColor=none;horizontalStack=0;resizeParent=1;resizeParentMax=0;resizeLast=0;collapsible=1;marginBottom=0;whiteSpace=wrap;html=1;flipV=0;" vertex="1" parent="1">
          <mxGeometry x="970" y="122" width="140" height="104" as="geometry" />
        </mxCell>
        <mxCell id="nSdMBXf0cxcsSDTW76qy-47" value="x = 40" style="text;strokeColor=none;fillColor=none;align=left;verticalAlign=top;spacingLeft=4;spacingRight=4;overflow=hidden;rotatable=0;points=[[0,0.5],[1,0.5]];portConstraint=eastwest;whiteSpace=wrap;html=1;" vertex="1" parent="nSdMBXf0cxcsSDTW76qy-46">
          <mxGeometry y="26" width="140" height="26" as="geometry" />
        </mxCell>
        <mxCell id="nSdMBXf0cxcsSDTW76qy-48" value="y = 40" style="text;strokeColor=none;fillColor=none;align=left;verticalAlign=top;spacingLeft=4;spacingRight=4;overflow=hidden;rotatable=0;points=[[0,0.5],[1,0.5]];portConstraint=eastwest;whiteSpace=wrap;html=1;" vertex="1" parent="nSdMBXf0cxcsSDTW76qy-46">
          <mxGeometry y="52" width="140" height="26" as="geometry" />
        </mxCell>
        <mxCell id="nSdMBXf0cxcsSDTW76qy-49" value="angle = 90" style="text;strokeColor=none;fillColor=none;align=left;verticalAlign=top;spacingLeft=4;spacingRight=4;overflow=hidden;rotatable=0;points=[[0,0.5],[1,0.5]];portConstraint=eastwest;whiteSpace=wrap;html=1;" vertex="1" parent="nSdMBXf0cxcsSDTW76qy-46">
          <mxGeometry y="78" width="140" height="26" as="geometry" />
        </mxCell>
        <mxCell id="nSdMBXf0cxcsSDTW76qy-50" value="d2: Dimensions" style="swimlane;fontStyle=0;childLayout=stackLayout;horizontal=1;startSize=26;fillColor=none;horizontalStack=0;resizeParent=1;resizeParentMax=0;resizeLast=0;collapsible=1;marginBottom=0;whiteSpace=wrap;html=1;flipV=0;" vertex="1" parent="1">
          <mxGeometry x="970" y="290" width="140" height="104" as="geometry" />
        </mxCell>
        <mxCell id="nSdMBXf0cxcsSDTW76qy-51" value="length = 200" style="text;strokeColor=none;fillColor=none;align=left;verticalAlign=top;spacingLeft=4;spacingRight=4;overflow=hidden;rotatable=0;points=[[0,0.5],[1,0.5]];portConstraint=eastwest;whiteSpace=wrap;html=1;" vertex="1" parent="nSdMBXf0cxcsSDTW76qy-50">
          <mxGeometry y="26" width="140" height="26" as="geometry" />
        </mxCell>
        <mxCell id="nSdMBXf0cxcsSDTW76qy-52" value="width = 10" style="text;strokeColor=none;fillColor=none;align=left;verticalAlign=top;spacingLeft=4;spacingRight=4;overflow=hidden;rotatable=0;points=[[0,0.5],[1,0.5]];portConstraint=eastwest;whiteSpace=wrap;html=1;" vertex="1" parent="nSdMBXf0cxcsSDTW76qy-50">
          <mxGeometry y="52" width="140" height="26" as="geometry" />
        </mxCell>
        <mxCell id="nSdMBXf0cxcsSDTW76qy-53" value="height = 250" style="text;strokeColor=none;fillColor=none;align=left;verticalAlign=top;spacingLeft=4;spacingRight=4;overflow=hidden;rotatable=0;points=[[0,0.5],[1,0.5]];portConstraint=eastwest;whiteSpace=wrap;html=1;" vertex="1" parent="nSdMBXf0cxcsSDTW76qy-50">
          <mxGeometry y="78" width="140" height="26" as="geometry" />
        </mxCell>
        <mxCell id="nSdMBXf0cxcsSDTW76qy-54" value="wall2: Wall" style="swimlane;fontStyle=0;childLayout=stackLayout;horizontal=1;startSize=26;fillColor=none;horizontalStack=0;resizeParent=1;resizeParentMax=0;resizeLast=0;collapsible=1;marginBottom=0;whiteSpace=wrap;html=1;flipV=0;" vertex="1" parent="1">
          <mxGeometry x="770" y="224" width="157" height="104" as="geometry" />
        </mxCell>
        <mxCell id="nSdMBXf0cxcsSDTW76qy-55" value="position: Position" style="text;strokeColor=none;fillColor=none;align=left;verticalAlign=top;spacingLeft=4;spacingRight=4;overflow=hidden;rotatable=0;points=[[0,0.5],[1,0.5]];portConstraint=eastwest;whiteSpace=wrap;html=1;" vertex="1" parent="nSdMBXf0cxcsSDTW76qy-54">
          <mxGeometry y="26" width="157" height="26" as="geometry" />
        </mxCell>
        <mxCell id="nSdMBXf0cxcsSDTW76qy-56" value="dimensions: Dimensions" style="text;strokeColor=none;fillColor=none;align=left;verticalAlign=top;spacingLeft=4;spacingRight=4;overflow=hidden;rotatable=0;points=[[0,0.5],[1,0.5]];portConstraint=eastwest;whiteSpace=wrap;html=1;" vertex="1" parent="nSdMBXf0cxcsSDTW76qy-54">
          <mxGeometry y="52" width="157" height="26" as="geometry" />
        </mxCell>
        <mxCell id="nSdMBXf0cxcsSDTW76qy-57" value="angle&amp;nbsp; = 0" style="text;strokeColor=none;fillColor=none;align=left;verticalAlign=top;spacingLeft=4;spacingRight=4;overflow=hidden;rotatable=0;points=[[0,0.5],[1,0.5]];portConstraint=eastwest;whiteSpace=wrap;html=1;" vertex="1" parent="nSdMBXf0cxcsSDTW76qy-54">
          <mxGeometry y="78" width="157" height="26" as="geometry" />
        </mxCell>
        <mxCell id="nSdMBXf0cxcsSDTW76qy-58" value="" style="endArrow=none;html=1;rounded=0;entryX=0.5;entryY=0;entryDx=0;entryDy=0;exitX=1;exitY=0.5;exitDx=0;exitDy=0;edgeStyle=elbowEdgeStyle;" edge="1" parent="1" target="nSdMBXf0cxcsSDTW76qy-54" source="nSdMBXf0cxcsSDTW76qy-25">
          <mxGeometry width="50" height="50" relative="1" as="geometry">
            <mxPoint x="1291" y="181" as="sourcePoint" />
            <mxPoint x="1305" y="156" as="targetPoint" />
          </mxGeometry>
        </mxCell>
        <mxCell id="nSdMBXf0cxcsSDTW76qy-59" value="" style="endArrow=none;html=1;rounded=0;entryX=1;entryY=0.5;entryDx=0;entryDy=0;exitX=0;exitY=0;exitDx=0;exitDy=0;edgeStyle=elbowEdgeStyle;" edge="1" parent="1" source="nSdMBXf0cxcsSDTW76qy-46" target="nSdMBXf0cxcsSDTW76qy-55">
          <mxGeometry width="50" height="50" relative="1" as="geometry">
            <mxPoint x="1303" y="179" as="sourcePoint" />
            <mxPoint x="1303" y="230" as="targetPoint" />
          </mxGeometry>
        </mxCell>
        <mxCell id="nSdMBXf0cxcsSDTW76qy-60" value="" style="endArrow=none;html=1;rounded=0;entryX=1;entryY=0.5;entryDx=0;entryDy=0;exitX=0;exitY=0;exitDx=0;exitDy=0;edgeStyle=elbowEdgeStyle;" edge="1" parent="1" source="nSdMBXf0cxcsSDTW76qy-50" target="nSdMBXf0cxcsSDTW76qy-57">
          <mxGeometry width="50" height="50" relative="1" as="geometry">
            <mxPoint x="1191" y="303.16799999999967" as="sourcePoint" />
            <mxPoint x="1233" y="346.16799999999967" as="targetPoint" />
          </mxGeometry>
        </mxCell>
        <mxCell id="nSdMBXf0cxcsSDTW76qy-61" value="i1: Item" style="swimlane;fontStyle=0;childLayout=stackLayout;horizontal=1;startSize=26;fillColor=none;horizontalStack=0;resizeParent=1;resizeParentMax=0;resizeLast=0;collapsible=1;marginBottom=0;whiteSpace=wrap;html=1;flipV=0;" vertex="1" parent="1">
          <mxGeometry x="570" y="328" width="157" height="182" as="geometry" />
        </mxCell>
        <mxCell id="nSdMBXf0cxcsSDTW76qy-62" value="article = item_article_2023" style="text;strokeColor=none;fillColor=none;align=left;verticalAlign=top;spacingLeft=4;spacingRight=4;overflow=hidden;rotatable=0;points=[[0,0.5],[1,0.5]];portConstraint=eastwest;whiteSpace=wrap;html=1;" vertex="1" parent="nSdMBXf0cxcsSDTW76qy-61">
          <mxGeometry y="26" width="157" height="26" as="geometry" />
        </mxCell>
        <mxCell id="nSdMBXf0cxcsSDTW76qy-63" value="dimensions: Dimensions" style="text;strokeColor=none;fillColor=none;align=left;verticalAlign=top;spacingLeft=4;spacingRight=4;overflow=hidden;rotatable=0;points=[[0,0.5],[1,0.5]];portConstraint=eastwest;whiteSpace=wrap;html=1;" vertex="1" parent="nSdMBXf0cxcsSDTW76qy-61">
          <mxGeometry y="52" width="157" height="26" as="geometry" />
        </mxCell>
        <mxCell id="nSdMBXf0cxcsSDTW76qy-64" value="collectionArticle = null" style="text;strokeColor=none;fillColor=none;align=left;verticalAlign=top;spacingLeft=4;spacingRight=4;overflow=hidden;rotatable=0;points=[[0,0.5],[1,0.5]];portConstraint=eastwest;whiteSpace=wrap;html=1;" vertex="1" parent="nSdMBXf0cxcsSDTW76qy-61">
          <mxGeometry y="78" width="157" height="26" as="geometry" />
        </mxCell>
        <mxCell id="nSdMBXf0cxcsSDTW76qy-71" value="price = 100" style="text;strokeColor=none;fillColor=none;align=left;verticalAlign=top;spacingLeft=4;spacingRight=4;overflow=hidden;rotatable=0;points=[[0,0.5],[1,0.5]];portConstraint=eastwest;whiteSpace=wrap;html=1;" vertex="1" parent="nSdMBXf0cxcsSDTW76qy-61">
          <mxGeometry y="104" width="157" height="26" as="geometry" />
        </mxCell>
        <mxCell id="nSdMBXf0cxcsSDTW76qy-72" value="category = tables" style="text;strokeColor=none;fillColor=none;align=left;verticalAlign=top;spacingLeft=4;spacingRight=4;overflow=hidden;rotatable=0;points=[[0,0.5],[1,0.5]];portConstraint=eastwest;whiteSpace=wrap;html=1;" vertex="1" parent="nSdMBXf0cxcsSDTW76qy-61">
          <mxGeometry y="130" width="157" height="26" as="geometry" />
        </mxCell>
        <mxCell id="nSdMBXf0cxcsSDTW76qy-73" value="title = Coffet table" style="text;strokeColor=none;fillColor=none;align=left;verticalAlign=top;spacingLeft=4;spacingRight=4;overflow=hidden;rotatable=0;points=[[0,0.5],[1,0.5]];portConstraint=eastwest;whiteSpace=wrap;html=1;" vertex="1" parent="nSdMBXf0cxcsSDTW76qy-61">
          <mxGeometry y="156" width="157" height="26" as="geometry" />
        </mxCell>
        <mxCell id="nSdMBXf0cxcsSDTW76qy-65" value="" style="endArrow=none;html=1;rounded=0;entryX=0;entryY=0;entryDx=0;entryDy=0;exitX=0;exitY=0.5;exitDx=0;exitDy=0;edgeStyle=orthogonalEdgeStyle;" edge="1" parent="1" source="nSdMBXf0cxcsSDTW76qy-45" target="nSdMBXf0cxcsSDTW76qy-61">
          <mxGeometry width="50" height="50" relative="1" as="geometry">
            <mxPoint x="550" y="227" as="sourcePoint" />
            <mxPoint x="550" y="314" as="targetPoint" />
            <Array as="points">
              <mxPoint x="560" y="227" />
              <mxPoint x="560" y="328" />
            </Array>
          </mxGeometry>
        </mxCell>
        <mxCell id="nSdMBXf0cxcsSDTW76qy-66" value="d3: Dimensions" style="swimlane;fontStyle=0;childLayout=stackLayout;horizontal=1;startSize=26;fillColor=none;horizontalStack=0;resizeParent=1;resizeParentMax=0;resizeLast=0;collapsible=1;marginBottom=0;whiteSpace=wrap;html=1;flipV=0;" vertex="1" parent="1">
          <mxGeometry x="787" y="381" width="140" height="104" as="geometry" />
        </mxCell>
        <mxCell id="nSdMBXf0cxcsSDTW76qy-67" value="length =100" style="text;strokeColor=none;fillColor=none;align=left;verticalAlign=top;spacingLeft=4;spacingRight=4;overflow=hidden;rotatable=0;points=[[0,0.5],[1,0.5]];portConstraint=eastwest;whiteSpace=wrap;html=1;" vertex="1" parent="nSdMBXf0cxcsSDTW76qy-66">
          <mxGeometry y="26" width="140" height="26" as="geometry" />
        </mxCell>
        <mxCell id="nSdMBXf0cxcsSDTW76qy-68" value="width = 100" style="text;strokeColor=none;fillColor=none;align=left;verticalAlign=top;spacingLeft=4;spacingRight=4;overflow=hidden;rotatable=0;points=[[0,0.5],[1,0.5]];portConstraint=eastwest;whiteSpace=wrap;html=1;" vertex="1" parent="nSdMBXf0cxcsSDTW76qy-66">
          <mxGeometry y="52" width="140" height="26" as="geometry" />
        </mxCell>
        <mxCell id="nSdMBXf0cxcsSDTW76qy-69" value="height = 100" style="text;strokeColor=none;fillColor=none;align=left;verticalAlign=top;spacingLeft=4;spacingRight=4;overflow=hidden;rotatable=0;points=[[0,0.5],[1,0.5]];portConstraint=eastwest;whiteSpace=wrap;html=1;" vertex="1" parent="nSdMBXf0cxcsSDTW76qy-66">
          <mxGeometry y="78" width="140" height="26" as="geometry" />
        </mxCell>
        <mxCell id="nSdMBXf0cxcsSDTW76qy-70" value="" style="endArrow=none;html=1;rounded=0;entryX=1;entryY=0.5;entryDx=0;entryDy=0;exitX=-0.01;exitY=0.118;exitDx=0;exitDy=0;exitPerimeter=0;" edge="1" parent="1" source="nSdMBXf0cxcsSDTW76qy-66" target="nSdMBXf0cxcsSDTW76qy-63">
          <mxGeometry width="50" height="50" relative="1" as="geometry">
            <mxPoint x="980" y="300" as="sourcePoint" />
            <mxPoint x="937" y="325" as="targetPoint" />
          </mxGeometry>
        </mxCell>
        <mxCell id="nSdMBXf0cxcsSDTW76qy-74" value="" style="endArrow=none;html=1;rounded=0;exitX=0.25;exitY=0;exitDx=0;exitDy=0;entryX=0.249;entryY=1.003;entryDx=0;entryDy=0;entryPerimeter=0;" edge="1" parent="1" source="nSdMBXf0cxcsSDTW76qy-75" target="nSdMBXf0cxcsSDTW76qy-73">
          <mxGeometry width="50" height="50" relative="1" as="geometry">
            <mxPoint x="640.087" y="524.104" as="sourcePoint" />
            <mxPoint x="600" y="510" as="targetPoint" />
          </mxGeometry>
        </mxCell>
        <mxCell id="nSdMBXf0cxcsSDTW76qy-75" value="pI1: PositionedItem" style="swimlane;fontStyle=0;childLayout=stackLayout;horizontal=1;startSize=26;fillColor=none;horizontalStack=0;resizeParent=1;resizeParentMax=0;resizeLast=0;collapsible=1;marginBottom=0;whiteSpace=wrap;html=1;flipV=0;" vertex="1" parent="1">
          <mxGeometry x="570" y="524" width="157" height="52" as="geometry" />
        </mxCell>
        <mxCell id="nSdMBXf0cxcsSDTW76qy-76" value="position" style="text;strokeColor=none;fillColor=none;align=left;verticalAlign=top;spacingLeft=4;spacingRight=4;overflow=hidden;rotatable=0;points=[[0,0.5],[1,0.5]];portConstraint=eastwest;whiteSpace=wrap;html=1;" vertex="1" parent="nSdMBXf0cxcsSDTW76qy-75">
          <mxGeometry y="26" width="157" height="26" as="geometry" />
        </mxCell>
        <mxCell id="nSdMBXf0cxcsSDTW76qy-86" value="p3: Position" style="swimlane;fontStyle=0;childLayout=stackLayout;horizontal=1;startSize=26;fillColor=none;horizontalStack=0;resizeParent=1;resizeParentMax=0;resizeLast=0;collapsible=1;marginBottom=0;whiteSpace=wrap;html=1;flipV=0;" vertex="1" parent="1">
          <mxGeometry x="960" y="464" width="140" height="104" as="geometry" />
        </mxCell>
        <mxCell id="nSdMBXf0cxcsSDTW76qy-87" value="x = 0" style="text;strokeColor=none;fillColor=none;align=left;verticalAlign=top;spacingLeft=4;spacingRight=4;overflow=hidden;rotatable=0;points=[[0,0.5],[1,0.5]];portConstraint=eastwest;whiteSpace=wrap;html=1;" vertex="1" parent="nSdMBXf0cxcsSDTW76qy-86">
          <mxGeometry y="26" width="140" height="26" as="geometry" />
        </mxCell>
        <mxCell id="nSdMBXf0cxcsSDTW76qy-88" value="y = 40" style="text;strokeColor=none;fillColor=none;align=left;verticalAlign=top;spacingLeft=4;spacingRight=4;overflow=hidden;rotatable=0;points=[[0,0.5],[1,0.5]];portConstraint=eastwest;whiteSpace=wrap;html=1;" vertex="1" parent="nSdMBXf0cxcsSDTW76qy-86">
          <mxGeometry y="52" width="140" height="26" as="geometry" />
        </mxCell>
        <mxCell id="nSdMBXf0cxcsSDTW76qy-89" value="angle = 90" style="text;strokeColor=none;fillColor=none;align=left;verticalAlign=top;spacingLeft=4;spacingRight=4;overflow=hidden;rotatable=0;points=[[0,0.5],[1,0.5]];portConstraint=eastwest;whiteSpace=wrap;html=1;" vertex="1" parent="nSdMBXf0cxcsSDTW76qy-86">
          <mxGeometry y="78" width="140" height="26" as="geometry" />
        </mxCell>
        <mxCell id="nSdMBXf0cxcsSDTW76qy-90" value="" style="endArrow=none;html=1;rounded=0;entryX=1;entryY=0.75;entryDx=0;entryDy=0;exitX=0;exitY=0.25;exitDx=0;exitDy=0;edgeStyle=orthogonalEdgeStyle;" edge="1" parent="1" source="nSdMBXf0cxcsSDTW76qy-86" target="nSdMBXf0cxcsSDTW76qy-75">
          <mxGeometry width="50" height="50" relative="1" as="geometry">
            <mxPoint x="796" y="403" as="sourcePoint" />
            <mxPoint x="737" y="403" as="targetPoint" />
          </mxGeometry>
        </mxCell>
        <mxCell id="nSdMBXf0cxcsSDTW76qy-91" value="c1: ConfiguratorStore" style="swimlane;fontStyle=0;childLayout=stackLayout;horizontal=1;startSize=26;fillColor=none;horizontalStack=0;resizeParent=1;resizeParentMax=0;resizeLast=0;collapsible=1;marginBottom=0;whiteSpace=wrap;html=1;flipV=0;" vertex="1" parent="1">
          <mxGeometry x="1140" y="80" width="157" height="78" as="geometry" />
        </mxCell>
        <mxCell id="nSdMBXf0cxcsSDTW76qy-92" value="editedLayout" style="text;strokeColor=none;fillColor=none;align=left;verticalAlign=top;spacingLeft=4;spacingRight=4;overflow=hidden;rotatable=0;points=[[0,0.5],[1,0.5]];portConstraint=eastwest;whiteSpace=wrap;html=1;" vertex="1" parent="nSdMBXf0cxcsSDTW76qy-91">
          <mxGeometry y="26" width="157" height="26" as="geometry" />
        </mxCell>
        <mxCell id="nSdMBXf0cxcsSDTW76qy-96" value="viewer = null" style="text;strokeColor=none;fillColor=none;align=left;verticalAlign=top;spacingLeft=4;spacingRight=4;overflow=hidden;rotatable=0;points=[[0,0.5],[1,0.5]];portConstraint=eastwest;whiteSpace=wrap;html=1;" vertex="1" parent="nSdMBXf0cxcsSDTW76qy-91">
          <mxGeometry y="52" width="157" height="26" as="geometry" />
        </mxCell>
        <mxCell id="nSdMBXf0cxcsSDTW76qy-98" value="" style="endArrow=none;html=1;rounded=0;entryX=0;entryY=0.5;entryDx=0;entryDy=0;exitX=1;exitY=0;exitDx=0;exitDy=0;edgeStyle=orthogonalEdgeStyle;" edge="1" parent="1" source="nSdMBXf0cxcsSDTW76qy-17" target="nSdMBXf0cxcsSDTW76qy-92">
          <mxGeometry width="50" height="50" relative="1" as="geometry">
            <mxPoint x="770" y="211" as="sourcePoint" />
            <mxPoint x="858" y="234" as="targetPoint" />
            <Array as="points">
              <mxPoint x="760" y="90" />
              <mxPoint x="1120" y="90" />
              <mxPoint x="1120" y="119" />
            </Array>
          </mxGeometry>
        </mxCell>
      </root>
    </mxGraphModel>
  </diagram>
</mxfile>
